PathFileType	4	(X/Y/Z)	 s06c0301.trc
DataRate	CameraRate	NumFrames	NumMarkers	Units	OrigDataRate	OrigDataStartFrame	OrigNumFrames
200	200	7	48	mm	200	1751	2000
Frame#	Time	racr			lacr			c7			jug			rlel			rdr			llel			ldr			s2			lic			ric			lasi			rasi			rpsi			lpsi			rgt			lgt			rth1			rth2			rth3			rth4			rlfc			rmfc			rsh1			rsh2			rsh3			rsh4			rlmal			rcal			rtoe			rmt5			lth1			lth2			lth4			lth3			llfc			lmfc			llmal			lcal			lmt5			lsh1			lsh2			lsh3			lsh4			ltoe			SBIKE			LBIKE			RBIKE			
		X1	Y1	Z1	X2	Y2	Z2	X3	Y3	Z3	X4	Y4	Z4	X5	Y5	Z5	X6	Y6	Z6	X7	Y7	Z7	X8	Y8	Z8	X9	Y9	Z9	X10	Y10	Z10	X11	Y11	Z11	X12	Y12	Z12	X13	Y13	Z13	X14	Y14	Z14	X15	Y15	Z15	X16	Y16	Z16	X17	Y17	Z17	X18	Y18	Z18	X19	Y19	Z19	X20	Y20	Z20	X21	Y21	Z21	X22	Y22	Z22	X23	Y23	Z23	X24	Y24	Z24	X25	Y25	Z25	X26	Y26	Z26	X27	Y27	Z27	X28	Y28	Z28	X29	Y29	Z29	X30	Y30	Z30	X31	Y31	Z31	X32	Y32	Z32	X33	Y33	Z33	X34	Y34	Z34	X35	Y35	Z35	X36	Y36	Z36	X37	Y37	Z37	X38	Y38	Z38	X39	Y39	Z39	X40	Y40	Z40	X41	Y41	Z41	X42	Y42	Z42	X43	Y43	Z43	X44	Y44	Z44	X45	Y45	Z45	X46	Y46	Z46	X47	Y47	Z47	X48	Y48	Z48	
1751	8.7550	459.211928	1341.332305	-60.090337	487.881457	1367.549134	-353.642065	452.067100	1428.486797	-207.685509	459.740158	1252.722040	-199.368667	546.497834	1106.824238	17.110775	720.078388	921.563233	-44.792214	565.416244	1123.188463	-431.710296	721.882380	921.006780	-379.947789	-47.579567	1125.610916	-194.558244	119.055647	1118.128138	-381.050895	118.321734	1100.775552	-44.649982	130.541943	1077.459477	-339.738552	151.867353	1053.519098	-75.986117	-12.791796	1164.849082	-171.093303	-21.028720	1162.549526	-234.573239	78.565042	1007.933586	-17.026050	91.340464	1077.626223	-403.511014	161.396992	899.839485	2.875554	228.769709	839.547791	-2.488301	256.058490	757.167425	-11.582428	256.620298	860.492383	-18.397353	281.645737	658.829728	-32.490521	274.538581	637.701969	-143.623717	219.457210	555.719181	-9.617820	192.892426	474.907794	-30.692030	131.041291	413.303064	-36.213811	214.358341	466.992503	-64.479272	81.890682	352.974694	-43.687576	26.905763	378.919153	-96.921571	180.629245	149.215687	-94.707446	104.346181	213.512175	-26.643336	168.127327	1004.744966	-416.203047	254.787203	996.117324	-409.259889	266.739381	1027.602055	-391.752664	327.712168	943.730989	-408.566433	410.055356	860.360593	-379.265308	415.290460	841.373454	-261.757321	253.040929	518.849183	-378.280262	176.178891	492.014843	-332.142068	366.924500	440.063807	-403.043051	373.728263	757.463664	-402.958657	355.627414	673.970699	-384.525221	298.750861	605.430934	-384.946684	378.279954	667.093456	-352.971059	452.203908	439.645074	-343.262174	-203.415023	869.313949	-206.432457	-49.295765	84.110884	-413.772497	-48.829841	80.090855	-16.332406	
1752	8.7600	458.919766	1341.220690	-59.844654	487.964402	1367.515269	-353.413581	451.954265	1428.457474	-207.579994	459.583576	1252.689771	-199.164485	546.309851	1106.631828	17.324874	720.042407	921.590614	-44.798049	565.959344	1123.401989	-431.499402	722.117237	921.002296	-380.410863	-47.616638	1125.499231	-194.980586	119.490689	1117.808885	-381.173807	118.056620	1100.834763	-45.108314	131.069039	1076.308690	-340.037061	150.602677	1053.373457	-77.990128	-12.887117	1164.743893	-171.610831	-21.061759	1162.357487	-235.054991	78.866969	1008.319747	-17.297931	91.335994	1076.349541	-404.139774	162.426923	901.040509	2.476911	230.330275	841.205964	-2.787219	258.283466	759.156204	-11.572784	257.900872	862.355335	-18.863641	284.012952	660.895484	-32.520253	276.746032	639.718813	-143.683396	220.471834	558.378438	-9.621136	192.260819	477.724323	-31.795172	129.932857	417.302899	-36.241041	213.797754	469.751855	-64.796076	79.595026	357.891471	-43.678483	24.722046	384.328526	-96.886755	176.921904	153.464791	-94.736635	101.037659	218.161503	-26.748799	167.948092	1002.467245	-416.768911	254.651056	993.169342	-410.067484	266.893826	1024.620115	-392.701160	326.971279	940.125680	-409.158049	408.966469	856.145433	-379.916174	414.276881	837.631883	-261.756124	255.513996	513.114104	-378.546292	178.887281	485.820518	-332.156242	370.102709	435.044823	-403.077200	373.712131	752.921546	-403.682373	356.388199	669.251974	-384.916789	300.401453	599.967462	-385.288695	379.171409	662.807612	-353.601754	455.340964	435.413187	-343.330696	-203.409189	869.318115	-206.426883	-49.290621	84.118864	-413.756484	-48.831688	80.122392	-16.336219	
1753	8.7650	458.676465	1341.072778	-59.600559	488.062785	1367.493410	-353.168678	451.848077	1428.428061	-207.448199	459.484085	1252.657248	-198.982612	546.145474	1106.473120	17.562848	720.022064	921.633201	-44.818351	566.525756	1123.629050	-431.322583	722.339567	920.887319	-380.369933	-47.624155	1125.393542	-195.421092	119.871133	1117.397295	-381.249390	117.807993	1100.979101	-45.458978	131.641954	1075.086483	-340.337088	150.365900	1053.601675	-78.572303	-12.916480	1164.701109	-172.082135	-21.061086	1162.181546	-235.561035	79.062607	1008.688284	-17.581528	91.426203	1075.018414	-404.824582	163.489086	902.131174	2.042614	231.894430	843.018522	-3.073584	260.514803	761.146269	-11.491514	259.307184	864.331971	-19.234971	286.382971	662.837519	-32.487535	278.997735	641.747958	-143.746407	221.509988	561.151421	-9.663265	192.100683	480.873469	-31.838914	128.893042	421.420152	-36.306849	213.414512	472.656699	-65.030154	77.418208	362.880904	-43.716878	22.767940	389.484189	-96.905815	173.529999	157.867582	-94.571289	97.901246	223.039323	-26.870818	167.851211	1000.173323	-417.377790	254.478761	990.069477	-410.842698	267.074915	1021.501866	-393.689285	326.264641	936.283089	-409.806516	407.763059	851.803535	-380.617387	412.297014	832.950373	-263.546552	258.018678	507.063669	-378.155922	181.535874	479.663290	-332.533335	373.021534	430.107719	-403.246577	373.464376	748.217854	-404.307415	357.068303	664.389191	-385.387799	301.902617	594.404140	-385.571472	379.818907	658.171988	-354.021115	458.266345	430.903509	-343.433148	-203.410075	869.321454	-206.457098	-49.288833	84.110863	-413.768392	-48.841038	80.102338	-16.357750	
1754	8.7700	458.439752	1340.866165	-59.328459	488.194076	1367.468998	-352.889953	451.773182	1428.424200	-207.320987	459.371438	1252.645624	-198.860724	545.987430	1106.289471	17.815544	720.028734	921.634102	-44.815538	567.013827	1123.798153	-431.129537	722.599390	920.733136	-380.290229	-47.547285	1125.247305	-195.878564	120.239621	1116.982001	-381.352860	117.644108	1101.078132	-45.828599	132.260899	1073.792103	-340.638563	150.104120	1053.919543	-79.191308	-12.940744	1164.672579	-172.612651	-21.040693	1162.024166	-236.061791	79.397426	1009.112078	-17.822845	91.480228	1073.681625	-405.461316	164.545022	903.347201	1.528026	233.439722	844.849222	-3.400538	262.811947	763.115114	-11.444113	260.616515	866.263224	-19.692233	288.838643	664.962350	-32.474909	281.309093	643.775592	-143.716068	222.619942	563.971602	-9.703450	192.010009	484.238664	-31.933969	127.961710	425.666311	-36.396087	213.041759	475.654056	-65.204652	75.299073	368.046571	-43.751481	20.814608	394.793826	-96.954045	170.196198	162.485126	-94.509057	94.953602	228.106851	-26.869902	167.781838	997.780317	-418.029043	254.330724	986.817440	-411.637674	267.297328	1018.236846	-394.705334	325.602322	932.360706	-410.431005	406.533589	847.265088	-381.284260	411.205533	828.585736	-264.660830	260.267032	501.191741	-378.345483	184.030741	473.381198	-332.637317	375.824355	424.954797	-403.313275	373.143746	743.369845	-404.977258	357.668839	659.412832	-385.872697	303.241322	588.869921	-385.929666	380.446118	653.471538	-354.470626	461.083387	426.293625	-343.484257	-203.392667	869.322847	-206.460253	-49.288753	84.114498	-413.773724	-48.827498	80.084545	-16.365592	
1755	8.7750	458.202477	1340.643458	-59.019035	488.337878	1367.435433	-352.590456	451.706188	1428.425579	-207.191316	459.258971	1252.638853	-198.736287	545.806660	1106.096350	18.084072	720.027704	921.643183	-44.822853	567.563030	1123.974926	-430.871625	722.863738	920.597109	-380.237075	-47.545993	1125.083662	-196.342950	120.559193	1116.599639	-381.419880	117.402274	1101.152165	-46.278469	132.926084	1072.424796	-340.941415	149.812730	1054.125727	-79.914038	-13.011970	1164.581640	-173.092372	-21.046504	1161.868718	-236.572527	79.688963	1009.558252	-18.108212	91.595693	1072.295772	-406.100966	165.554322	904.584291	1.050920	235.028000	846.745152	-3.711356	265.197127	765.203568	-11.402700	262.785842	869.084600	-19.058233	291.322567	667.047902	-32.423172	283.663777	645.932774	-143.751559	223.818914	566.887331	-9.770924	191.958521	487.633596	-32.063419	127.045569	430.030163	-36.460100	212.857732	478.944432	-65.353261	73.226168	373.270149	-43.731374	18.911309	400.320221	-96.968217	167.012875	167.281104	-94.538776	92.130445	233.346125	-26.887102	167.761603	995.329798	-418.682662	254.209510	983.471474	-412.480393	267.526640	1014.794546	-395.752902	324.836229	928.224019	-411.076625	405.226801	842.559007	-381.980441	410.107144	823.961632	-265.646877	262.180141	495.492738	-379.102716	186.407348	467.077105	-332.753752	378.501228	419.712609	-403.427933	372.659570	738.278978	-405.459690	358.152980	654.257355	-386.255337	304.507619	583.149660	-386.177844	381.007412	648.617945	-354.939295	463.683970	421.499419	-343.561627	-203.372414	869.324245	-206.463959	-49.278536	84.101505	-413.770487	-48.828308	80.076644	-16.361939	
1756	8.7800	457.954079	1340.390311	-58.728135	488.511792	1367.431149	-352.348143	451.652258	1428.418530	-207.088759	459.154913	1252.622741	-198.652719	545.649385	1105.915652	18.356562	720.009218	921.632145	-44.812697	568.041976	1124.122620	-430.654476	723.105983	920.487097	-380.183073	-47.529590	1124.930449	-196.845078	121.022977	1116.119967	-381.474599	117.185243	1101.206251	-46.724321	133.575604	1071.049328	-341.312281	149.856026	1054.719730	-80.370477	-13.080285	1164.475611	-173.636614	-20.985575	1161.847697	-237.156147	80.045364	1010.081905	-18.303885	91.727416	1070.862565	-406.684753	166.658384	905.809249	0.539192	236.717342	848.610102	-3.997199	267.088221	767.566681	-11.498579	264.168071	871.023670	-19.668090	293.965958	669.225202	-32.393172	286.053448	648.159794	-143.718931	225.044597	569.884836	-9.769366	192.487629	491.455967	-31.124176	126.182488	434.535993	-36.537947	212.611681	481.953922	-65.608944	71.352684	378.655069	-43.743741	17.265485	406.364706	-97.237201	164.157687	172.221678	-94.447565	89.515979	238.605724	-26.918158	167.729038	992.788293	-419.407462	254.090025	979.956515	-413.296719	267.755492	1011.298288	-396.795732	324.074145	923.985644	-411.677527	403.830503	837.789683	-382.699458	408.846448	819.157386	-266.543807	264.215732	489.568485	-379.485607	188.539560	460.758497	-333.019479	381.022983	414.253971	-403.494326	372.137077	733.225599	-406.105018	358.510912	649.110431	-386.728589	305.561456	577.564612	-386.551830	381.574252	643.591533	-355.227636	466.210944	416.539196	-343.631709	-203.366142	869.330222	-206.471944	-49.282823	84.107891	-413.769526	-48.827776	80.079284	-16.364568	
1757	8.7850	457.675775	1340.142442	-58.358630	488.699478	1367.449530	-352.063033	451.614434	1428.426898	-206.966677	459.021693	1252.621246	-198.525343	545.477057	1105.733558	18.646893	719.973805	921.639795	-44.852332	568.449840	1124.259678	-430.435510	723.328525	920.361522	-380.098374	-47.484818	1124.778046	-197.365955	121.469130	1115.621144	-381.540637	117.093174	1101.356722	-47.084993	134.478260	1069.103703	-341.609777	149.351624	1054.519948	-81.271837	-13.219190	1163.753116	-174.000456	-20.891629	1161.734221	-237.717794	80.445075	1010.496829	-18.529363	91.941652	1069.355894	-407.278192	167.758551	907.068317	0.062849	238.366132	850.589315	-4.308580	269.520597	769.838465	-11.419749	265.571970	873.187758	-20.136841	296.689712	671.689258	-32.297802	288.502306	650.495250	-143.720757	226.227400	573.091541	-9.889877	192.681208	495.030676	-31.127059	125.470324	439.229757	-36.592324	212.579872	485.433078	-65.686972	69.476277	384.090233	-43.736580	15.260702	411.687880	-97.206446	161.431762	177.325734	-94.325820	87.048892	244.128898	-26.939530	167.707677	990.131511	-420.147937	253.918436	976.413714	-414.116827	267.997288	1007.622834	-397.826971	323.303946	919.578541	-412.332205	402.350018	832.903909	-383.442966	407.556120	814.363841	-267.410517	266.267241	483.213075	-379.065986	190.649096	454.328232	-333.166502	383.359336	408.772207	-403.595875	371.554445	727.947157	-406.714607	358.814684	643.858483	-387.205106	306.584594	571.737847	-386.848442	381.892791	638.635214	-355.676663	468.534291	411.408626	-343.654272	-203.361566	869.336599	-206.486616	-49.270002	84.096657	-413.771953	-48.821435	80.094271	-16.379081	
